<?xml version="1.0" encoding="UTF-8" standalone="no"?>
<!DOCTYPE svg PUBLIC "-//W3C//DTD SVG 1.1//EN" "http://www.w3.org/Graphics/SVG/1.1/DTD/svg11.dtd">
<svg width="100%" height="100%" viewBox="0 0 384 384" version="1.1" xmlns="http://www.w3.org/2000/svg" xmlns:xlink="http://www.w3.org/1999/xlink" xml:space="preserve" xmlns:serif="http://www.serif.com/" style="fill-rule:evenodd;clip-rule:evenodd;stroke-linejoin:round;stroke-miterlimit:2;">
    <rect id="chatnpc-icon-primary" x="0" y="0" width="384" height="384" style="fill:none;"/>
    <clipPath id="_clip1">
        <rect id="chatnpc-icon-primary1" serif:id="chatnpc-icon-primary" x="0" y="0" width="384" height="384"/>
    </clipPath>
    <g clip-path="url(#_clip1)">
        <g>
            <circle id="mask" cx="192" cy="191.191" r="192" style="fill:none;"/>
            <path id="icon" d="M75.206,343.55c-47.397,-36.274 -75.236,-92.674 -75.206,-152.359c0.049,-105.309 86.69,-191.951 192,-192c105.31,0.049 191.951,86.691 192,192c0.031,59.685 -27.809,116.085 -75.206,152.359c-8.954,-37.597 -35.493,-68.668 -71.227,-83.391c18.306,-2.263 33.716,-5.282 42.516,-7.189c5.744,-1.314 10.487,-5.374 12.672,-10.845c3.349,-9.051 7.243,-26.179 7.243,-56.939c-0,-30.761 -3.894,-47.889 -7.225,-56.949c-2.187,-5.477 -6.936,-9.542 -12.685,-10.859c-26.024,-5.627 -52.487,-8.993 -79.091,-10.06l0,-25.509c12.455,-3.934 20.981,-15.564 20.986,-28.626c-0.005,-16.45 -13.533,-29.988 -29.983,-30.005c-16.455,0.007 -29.994,13.546 -30.001,30.001c0.005,13.062 8.531,24.691 20.986,28.626l-0,25.509c-26.598,1.061 -53.054,4.433 -79.068,10.078c-5.743,1.312 -10.487,5.371 -12.672,10.841c-3.354,9.051 -7.243,26.179 -7.243,56.939c0,30.76 3.894,47.889 7.225,56.948c2.189,5.478 6.939,9.541 12.69,10.855c8.8,1.893 24.223,4.912 42.516,7.166c-35.738,14.728 -62.277,45.805 -71.227,83.409Zm74.795,-176.372c9.872,0.005 17.994,8.127 17.999,17.999c-0.005,9.872 -8.127,17.994 -17.999,17.999c-9.872,-0.005 -17.994,-8.127 -17.999,-17.999c0.012,-9.867 8.132,-17.981 17.999,-17.986l0,-0.013Zm84.002,-0c9.872,0.005 17.994,8.127 17.999,17.999c-0.005,9.872 -8.127,17.994 -17.999,17.999c-9.872,-0.005 -17.994,-8.127 -17.999,-17.999c0.013,-9.866 8.13,-17.979 17.995,-17.986l0.004,-0.013Z" style="fill:#334eff;"/>
        </g>
    </g>
</svg>
