<svg width="1887" height="1005" viewBox="0 0 1887 1005" fill="none" xmlns="http://www.w3.org/2000/svg">
<path d="M508 295C477.762 295 449.42 303.09 425 317.223C409.365 326.252 395.363 337.758 383.5 351.216C357.673 380.478 342 418.918 342 461V585.5L383.5 627V461C383.5 424.136 399.529 391.007 425 368.202C436.975 357.503 451.034 349.057 466.5 343.614C479.47 338.996 493.453 336.5 508 336.5C576.754 336.5 632.5 392.246 632.5 461C632.5 529.754 576.754 585.5 508 585.5V627C599.69 627 674 552.672 674 461C674 369.328 599.69 295 508 295Z" fill="#100E21"/>
<path d="M549.5 461C549.5 483.918 530.918 502.5 508 502.5V544C553.836 544 591 506.836 591 461C591 415.164 553.836 378 508 378C492.89 378 478.7 382.035 466.5 389.112C441.686 403.452 425 430.274 425 461V668.5L462.314 705.814L466.5 710V461C466.5 438.082 485.082 419.5 508 419.5C530.918 419.5 549.5 438.082 549.5 461V461Z" fill="#100E21"/>
<path d="M805.962 537.111V509.557H871.262C881.247 509.557 889.037 506.723 894.63 501.055C900.224 495.386 903.02 487.916 903.02 478.662C903.02 469.409 900.224 461.788 894.63 456.27C889.037 450.752 881.247 447.992 871.262 447.992H785.165V585.5H756.973V419.5H871.262C880.666 419.5 889.037 420.889 896.432 423.648C903.809 426.407 910.04 430.293 915.108 435.304C920.176 440.316 924.061 446.397 926.745 453.548C929.429 460.718 930.762 468.771 930.762 477.743C930.762 486.715 929.411 494.579 926.745 501.824C924.061 509.069 920.176 515.301 915.108 520.538C910.04 525.774 903.827 529.829 896.432 532.738C889.056 535.647 880.666 537.111 871.262 537.111H805.962V537.111Z" fill="#100E21"/>
<path d="M1023.28 585.5V520.519L936.953 419.5H975.187L1038.48 494.523L1101.98 419.5H1138.22L1051.66 520.519V585.5H1023.26H1023.28Z" fill="#100E21"/>
<path d="M1236.17 585.5V447.955H1161.37V419.5H1339.48V447.955H1264.57V585.5H1236.17Z" fill="#100E21"/>
<path d="M1517.19 419.5H1545.47V585.5H1517.19V419.5Z" fill="#100E21"/>
<path d="M1395.09 585.5V511.866H1500.35V486.658H1395.09V419.5H1366.8V585.5H1395.09Z" fill="#100E21"/>
</svg>
