<svg width="200" height="201" viewBox="0 0 200 201" fill="none" xmlns="http://www.w3.org/2000/svg">
<rect y="0.861145" width="200" height="200" fill="white"/>
<path d="M40.0484 79.9783V109.563L64.9239 124.988V95.3L40.0484 79.9783Z" fill="#31E530"/>
<path d="M73.6416 100.145C73.6416 100.145 73.6416 100.134 73.6416 100.129C73.6416 100.123 73.6416 100.112 73.6416 100.107C73.6416 99.9601 73.6688 99.8189 73.7069 99.6831C73.7069 99.6777 73.7069 99.6668 73.7123 99.6614C73.7558 99.5202 73.8102 99.3898 73.8864 99.2649C73.8864 99.2649 73.8864 99.2595 73.8918 99.2541C73.9679 99.1291 74.0604 99.0097 74.1637 98.9065C74.2671 98.8033 74.3867 98.7109 74.5227 98.6349C74.5227 98.6349 74.5281 98.6349 74.5335 98.6295L92.7687 88.2774L92.7469 81.2384L68.4533 95.3435V124.83L73.6362 121.3V100.172C73.6362 100.172 73.6362 100.161 73.6362 100.156L73.6416 100.145Z" fill="#31E530"/>
<path d="M66.1855 63L41.7506 76.877L66.7185 92.2584L91.0556 78.1316L66.1855 63Z" fill="#31E530"/>
<path d="M161.048 113.115V85.8714L105.652 118.704V148L161.048 113.115Z" fill="#31E530"/>
<path d="M89.1685 110.703L77.1767 103.317V118.877H77.1822V121.012H77.1767V132.331L102.117 148V118.682L92.4588 112.735L90.8164 111.719" fill="#31E530"/>
<path d="M135.444 68.1L96.3147 90.3194L94.5472 91.3188L92.7851 92.3236L78.879 100.221L92.3664 108.525L94.0142 109.541L95.6512 110.551L103.907 115.635L159.39 82.7482L135.444 68.1Z" fill="#31E530"/>
</svg>
